<svg width="1835" height="271" viewBox="0 0 1835 271" fill="none" xmlns="http://www.w3.org/2000/svg">
<path d="M192.511 270.114H295.405C304.502 270.114 310.172 260.269 305.604 252.433L254.137 163.321C249.609 155.445 238.268 155.445 233.7 163.321L182.233 252.433C177.705 260.309 183.375 270.114 192.432 270.114H192.511Z" fill="#E6212F"/>
<path d="M205.39 78.7953L163.098 5.55229C158.845 -1.85076 148.134 -1.85076 143.881 5.55229L1.64835 251.861C-3.03763 259.973 2.82968 270.093 12.1623 270.093H96.8248C105.842 270.093 114.19 265.289 118.719 257.453L205.39 107.344C210.509 98.5236 210.509 87.6159 205.39 78.7559V78.7953Z" fill="#E6212F"/>
<path d="M553.07 238.933V268.23H535.31C513.495 268.23 506.013 258.583 506.013 242.674C495.42 258.859 479.236 270.081 453.365 270.081C418.476 270.081 394.18 252.952 394.18 223.34C394.18 190.617 417.846 172.266 462.382 172.266H502.548V162.619C502.548 144.859 489.159 133.952 467.344 133.952C447.734 133.952 434.306 143.284 431.825 157.303H398.787C402.213 125.21 428.675 106.82 468.88 106.82C511.25 106.82 535.862 127.061 535.862 164.745V227.671C535.862 235.783 539.917 238.894 546.454 238.894H552.991L553.07 238.933ZM502.587 197.232H460.847C440.291 197.232 428.439 205.029 428.439 221.213C428.439 234.602 439.661 243.934 458.051 243.934C486.088 243.934 502.272 227.435 502.587 202.824V197.232Z" fill="white"/>
<path d="M588.899 108.742L632.805 232.113L676.121 108.742H711.64L652.77 268.223H611.659L552.789 108.742H588.938H588.899Z" fill="white"/>
<path d="M880.484 238.933V268.23H862.724C840.909 268.23 833.427 258.583 833.427 242.674C822.835 258.859 806.65 270.081 780.779 270.081C745.89 270.081 721.594 252.952 721.594 223.34C721.594 190.617 745.26 172.266 789.796 172.266H829.962V162.619C829.962 144.859 816.573 133.952 794.758 133.952C775.148 133.952 761.72 143.284 759.239 157.303H726.201C729.627 125.21 756.089 106.82 796.294 106.82C838.664 106.82 863.276 127.061 863.276 164.745V227.671C863.276 235.783 867.332 238.894 873.868 238.894H880.405L880.484 238.933ZM830.041 197.232H788.3C767.745 197.232 755.892 205.029 755.892 221.213C755.892 234.602 767.115 243.934 785.504 243.934C813.541 243.934 829.726 227.435 830.041 202.824V197.232Z" fill="white"/>
<path d="M941.871 50.2109V268.247H908.242V50.2109H941.871Z" fill="white"/>
<path d="M1130.68 238.933V268.23H1112.92C1091.1 268.23 1083.62 258.583 1083.62 242.674C1073.03 258.859 1056.85 270.081 1030.97 270.081C996.085 270.081 971.789 252.952 971.789 223.34C971.789 190.617 995.455 172.266 1039.99 172.266H1080.16V162.619C1080.16 144.859 1066.77 133.952 1044.95 133.952C1025.34 133.952 1011.95 143.284 1009.43 157.303H976.396C979.822 125.21 1006.28 106.82 1046.49 106.82C1088.86 106.82 1113.47 127.061 1113.47 164.745V227.671C1113.47 235.783 1117.53 238.894 1124.06 238.894H1130.6L1130.68 238.933ZM1080.2 197.232H1038.46C1017.9 197.232 1006.05 205.029 1006.05 221.213C1006.05 234.602 1017.27 243.934 1035.62 243.934C1063.66 243.934 1079.84 227.435 1080.16 202.824V197.232H1080.2Z" fill="white"/>
<path d="M1306.66 180.385V268.238H1272.72V182.276C1272.72 152.073 1259.96 135.849 1234.72 135.849C1207.94 135.849 1192.03 155.459 1192.03 187.867V268.238H1158.41V108.757H1187.7L1191.44 129.627C1201.41 117.184 1216.69 106.906 1242.52 106.906C1276.78 106.906 1306.7 125.296 1306.7 180.425L1306.66 180.385Z" fill="white"/>
<path d="M1410.66 270.128C1362.7 270.128 1331.23 237.405 1331.23 188.222C1331.23 139.039 1363.01 106.906 1411.6 106.906C1451.77 106.906 1477.96 129.627 1484.18 165.461H1449.6C1445.23 147.387 1430.9 135.573 1410.66 135.573C1383.57 135.573 1365.81 157.074 1365.81 188.222C1365.81 219.37 1383.57 241.5 1410.66 241.5C1431.53 241.5 1445.86 229.647 1449.92 210.982H1484.18C1477.96 247.446 1451.46 270.167 1410.66 270.167V270.128Z" fill="white"/>
<path d="M1653.34 180.394V268.247H1619.71V182.285C1619.71 152.082 1606.32 135.858 1581.39 135.858C1554.93 135.858 1538.71 155.468 1538.71 187.561V268.247H1505.08V50.2109H1538.71V131.841C1548.67 118.138 1563.95 106.915 1588.87 106.915C1623.45 106.915 1653.34 125.62 1653.34 180.434V180.394Z" fill="white"/>
<path d="M1755.53 106.875C1801.64 106.875 1833.42 136.172 1834.32 182.874C1834.32 186.93 1834.01 191.301 1833.38 195.633H1713.12V197.523C1714.69 224.93 1731.19 242.689 1757.65 242.689C1778.21 242.689 1793.17 232.412 1797.82 214.652H1831.45C1825.86 246.115 1799.36 270.096 1760.1 270.096C1709.65 270.096 1677.88 237.688 1677.88 188.781C1677.88 139.874 1709.34 106.875 1755.45 106.875H1755.53ZM1800.06 171.061C1797.27 147.395 1780.14 134.006 1756.75 134.006C1735.25 134.006 1716.86 148.34 1714.38 171.061H1800.03H1800.06Z" fill="white"/>
</svg>
